# xmcd CD database file
#
# Track frame offsets:
#	150
#	19525
#	30089
#	45304
#	61329
#	80759
#	99844
#	118494
#	132865
#	147458
#	158571
#	180183
#	198497
#
# Disc length: 2809 seconds
#
# Revision: 0
# Processed by: cddbd v1.5.1PL0 Copyright (c) Steve Scherf et al.
# Submitted via: CDex 1.50
#
DISCID=9d0af70d
DTITLE=Gwyneth Herbert - Bittersweet and Blue
DYEAR=1900
DGENRE=Jazz
TTITLE0=Bittersweet and Blue
TTITLE1=Grandma's Hands
TTITLE2=A little less
TTITLE3=(Looking for) The heart of saturday night
TTITLE4=Glory box
TTITLE5=The very thought of you
TTITLE6=Fallen
TTITLE7=It's alright with me
TTITLE8=Only love can break your heart
TTITLE9=White elephant town
TTITLE10=At seventeen
TTITLE11=Fever
TTITLE12=Every time we say goodbye
EXTD=
EXTT0=
EXTT1=
EXTT2=
EXTT3=
EXTT4=
EXTT5=
EXTT6=
EXTT7=
EXTT8=
EXTT9=
EXTT10=
EXTT11=
EXTT12=
PLAYORDER=
